<svg width="57" height="37" viewBox="0 0 57 37" fill="none" xmlns="http://www.w3.org/2000/svg">
<path d="M31.9764 37H53.1626C53.8372 37 54.4943 36.8292 55.0813 36.504C55.6683 36.1798 56.1501 35.7125 56.4831 35.1494C56.8248 34.5872 57 33.9491 57 33.2998C57 32.6504 56.816 32.0123 56.4831 31.4501L42.2533 7.66443C41.9168 7.10203 41.4332 6.63499 40.8506 6.31029C40.268 5.98559 39.6065 5.81457 38.9337 5.81457C38.2608 5.81457 37.6002 5.98559 37.0176 6.31029C36.435 6.63499 35.9505 7.10203 35.6149 7.66443L31.9764 13.7504L24.8624 1.84951C24.5259 1.2872 24.0415 0.820243 23.4588 0.495545C22.8762 0.170935 22.2148 0 21.5419 0C20.8691 0 20.2076 0.170935 19.625 0.495545C19.0424 0.820243 18.5578 1.2872 18.2214 1.84951L0.514257 31.4501C0.177829 32.0123 0 32.6504 0 33.2998C0 33.9491 0.176974 34.5872 0.513402 35.1494C0.848954 35.7125 1.33346 36.1798 1.91607 36.504C2.49869 36.8292 3.16014 37 3.833 37H17.1333C22.4031 37 26.2896 34.7659 28.9635 30.4078L35.4555 19.5572L38.9328 13.7504L49.369 31.1929H35.4555L31.9764 37ZM16.9169 31.187L7.63445 31.185L21.548 7.9295L28.4903 19.5572L23.8426 27.329C22.0667 30.1567 20.049 31.187 16.9169 31.187Z" fill="#00DC82"/>
</svg>
