<svg width="60" height="37" viewBox="0 0 60 37" fill="none" xmlns="http://www.w3.org/2000/svg">
<g clip-path="url(#clip0_1_35)">
<mask id="mask0_1_35" style="mask-type:luminance" maskUnits="userSpaceOnUse" x="0" y="0" width="60" height="37">
<path d="M0 0H60V36.3273H0V0Z" fill="white"/>
</mask>
<g mask="url(#mask0_1_35)">
<path fill-rule="evenodd" clip-rule="evenodd" d="M30 0C22 0 17 4.03636 15 12.1091C18 8.07273 21.5 6.55909 25.5 7.56818C27.7822 8.14336 29.4133 9.81509 31.2189 11.664C34.16 14.6767 37.5644 18.1636 45 18.1636C53 18.1636 58 14.1273 60 6.05455C57 10.0909 53.5 11.6045 49.5 10.5955C47.2178 10.0203 45.5867 8.34855 43.7811 6.49967C40.84 3.48697 37.4356 0 30 0ZM15 18.1636C7 18.1636 2 22.2 0 30.2727C3 26.2364 6.5 24.7227 10.5 25.7318C12.7822 26.3081 14.4133 27.9787 16.2189 29.8276C19.16 32.8403 22.5644 36.3273 30 36.3273C38 36.3273 43 32.2909 45 24.2182C42 28.2545 38.5 29.7682 34.5 28.7591C32.2178 28.1839 30.5867 26.5122 28.7811 24.6633C25.84 21.6506 22.4356 18.1636 15 18.1636Z" fill="#38BDF8"/>
</g>
</g>
<defs>
<clipPath id="clip0_1_35">
<rect width="60" height="37" fill="white"/>
</clipPath>
</defs>
</svg>
