<svg width="37" height="37" viewBox="0 0 37 37" fill="none" xmlns="http://www.w3.org/2000/svg">
<g clip-path="url(#clip0_1_41)">
<path d="M33.3867 0H3.61328C1.61772 0 0 1.61772 0 3.61328V33.3867C0 35.3823 1.61772 37 3.61328 37H33.3867C35.3823 37 37 35.3823 37 33.3867V3.61328C37 1.61772 35.3823 0 33.3867 0Z" fill="#3178C6"/>
<path d="M33.3867 0H3.61328C1.61772 0 0 1.61772 0 3.61328V33.3867C0 35.3823 1.61772 37 3.61328 37H33.3867C35.3823 37 37 35.3823 37 33.3867V3.61328C37 1.61772 35.3823 0 33.3867 0Z" fill="#3178C6"/>
<path fill-rule="evenodd" clip-rule="evenodd" d="M22.9038 29.4428V33.0604C23.4919 33.3619 24.1874 33.588 24.9905 33.7387C25.7935 33.8895 26.6398 33.9648 27.5295 33.9648C28.3966 33.9648 29.2203 33.882 30.0007 33.7161C30.7811 33.5503 31.4654 33.2771 32.0535 32.8965C32.6416 32.5159 33.1072 32.0184 33.4502 31.4042C33.7933 30.7899 33.9648 30.0306 33.9648 29.1262C33.9648 28.4705 33.8669 27.8958 33.6708 27.4022C33.4747 26.9085 33.192 26.4695 32.8225 26.0851C32.4531 25.7008 32.0101 25.3559 31.4936 25.0507C30.9772 24.7454 30.3947 24.4571 29.7463 24.1859C29.2713 23.9899 28.8453 23.7996 28.4682 23.615C28.0912 23.4302 27.7708 23.2419 27.5069 23.0497C27.243 22.8575 27.0394 22.654 26.8962 22.4392C26.753 22.2244 26.6813 21.9813 26.6813 21.71C26.6813 21.4613 26.7454 21.2371 26.8736 21.0373C27.0018 20.8376 27.1827 20.6662 27.4164 20.5229C27.6502 20.3798 27.9367 20.2686 28.276 20.1894C28.6153 20.1103 28.9922 20.0708 29.407 20.0708C29.7085 20.0708 30.0271 20.0934 30.3626 20.1386C30.6981 20.1838 31.0356 20.2535 31.3749 20.3477C31.7142 20.4419 32.044 20.5607 32.3645 20.7038C32.6849 20.847 32.9809 21.0128 33.2523 21.2013V17.821C32.7019 17.61 32.1006 17.4536 31.4484 17.3518C30.7962 17.2501 30.0478 17.1992 29.2034 17.1992C28.3438 17.1992 27.5295 17.2916 26.7605 17.4762C25.9914 17.6609 25.3147 17.9491 24.7303 18.341C24.146 18.733 23.6842 19.2323 23.3449 19.839C23.0056 20.4457 22.8359 21.1711 22.8359 22.0152C22.8359 23.093 23.147 24.0125 23.769 24.7737C24.391 25.5349 25.3354 26.1793 26.6021 26.7069C27.0998 26.9104 27.5635 27.1101 27.9932 27.3061C28.423 27.5021 28.7944 27.7056 29.1072 27.9166C29.4201 28.1276 29.6671 28.3575 29.8481 28.6062C30.029 28.8549 30.1195 29.1375 30.1195 29.4541C30.1195 29.6877 30.0629 29.9044 29.9498 30.1041C29.8367 30.3039 29.6652 30.4772 29.4352 30.6241C29.2053 30.7711 28.9188 30.886 28.5757 30.9689C28.2326 31.0519 27.8312 31.0933 27.3712 31.0933C26.587 31.0933 25.8105 30.9558 25.0413 30.6807C24.2723 30.4056 23.5597 29.993 22.9038 29.4428ZM16.822 20.5294H21.4629V17.5605H8.52734V20.5294H13.1456V33.748H16.822V20.5294Z" fill="white"/>
</g>
<defs>
<clipPath id="clip0_1_41">
<rect width="37" height="37" fill="white"/>
</clipPath>
</defs>
</svg>
